<svg id="Layer_1" data-name="Layer 1" xmlns="http://www.w3.org/2000/svg" xmlns:xlink="http://www.w3.org/1999/xlink" viewBox="0 0 360 360"><defs><style>.cls-1{fill:#fff;}.cls-2{fill:#06a77d;}</style><symbol id="Checkbox" data-name="Checkbox" viewBox="0 0 359.59 359.55"><path class="cls-1" d="M274.57,109.57c-6-5.6-13.71-5.42-20-.11-1,.8-1.84,1.68-2.72,2.57Q206.92,156.85,162,201.7c-1.05,1.05-1.9,2.31-3.14,3.83-17.29-17.29-34-34-50.64-50.64a44.13,44.13,0,0,0-4.42-4c-5.26-4-12.84-4.23-17.66.2-8.08,7.42-16,15.08-23.45,23.1-5.58,6-5.15,14.89.62,20.68q42.27,42.46,84.74,84.71c6,6,14.16,5.93,20.63.48.86-.72,1.66-1.51,2.46-2.3Q233,215.92,294.8,154.09a30.83,30.83,0,0,0,2.49-2.79c4.7-6,4.64-14.4-.63-19.88C289.48,124,282.14,116.64,274.57,109.57Z"/><path class="cls-2" d="M179.92,0C80.4-.16.07,80.18,0,179.94-.07,279,80.08,359.22,179.48,359.55s179.75-79.83,180.11-179.36S279.63.17,179.92,0ZM297.29,151.3a30.83,30.83,0,0,1-2.49,2.79Q233,215.92,171.15,277.74c-.79.79-1.6,1.58-2.46,2.3-6.46,5.45-14.62,5.49-20.63-.48q-42.49-42.24-84.74-84.71c-5.77-5.79-6.2-14.7-.62-20.68,7.48-8,15.37-15.68,23.45-23.1,4.82-4.43,12.4-4.19,17.66-.2a44.13,44.13,0,0,1,4.42,4c16.69,16.67,33.36,33.35,50.64,50.64,1.23-1.52,2.08-2.78,3.14-3.83q44.89-44.86,89.83-89.68c.88-.88,1.77-1.76,2.72-2.57,6.29-5.31,14-5.48,20,.11,7.57,7.07,14.91,14.38,22.09,21.85C301.92,136.9,302,145.29,297.29,151.3Z"/></symbol></defs><title>checkbox</title><use id="Checkbox-3" data-name="Checkbox" width="359.59" height="359.55" transform="translate(0 0)" xlink:href="#Checkbox"/></svg>